<?xml version="1.0" encoding="UTF-8"?>
<svg id="Vectorportal.com" xmlns="http://www.w3.org/2000/svg" viewBox="0 0 446.08 579.97">
  <defs>
    <style>
      .cls-1 {
        fill: #bd591e;
      }

      .cls-1, .cls-2, .cls-3, .cls-4, .cls-5, .cls-6, .cls-7, .cls-8, .cls-9, .cls-10, .cls-11 {
        stroke-width: 0px;
      }

      .cls-1, .cls-2, .cls-3, .cls-5, .cls-6, .cls-7, .cls-8, .cls-9, .cls-11 {
        fill-rule: evenodd;
      }

      .cls-2 {
        fill: #f9aa89;
      }

      .cls-3, .cls-4 {
        fill: #222a33;
      }

      .cls-5 {
        fill: #9fb3c7;
      }

      .cls-6 {
        fill: #fff;
      }

      .cls-7 {
        fill: #4d5a69;
      }

      .cls-8 {
        fill: #1b2327;
      }

      .cls-9 {
        fill: #e88d66;
      }

      .cls-10 {
        fill: #dceefa;
      }

      .cls-11 {
        fill: #5391f5;
      }
    </style>
  </defs>
  <circle class="cls-10" cx="221.92" cy="306.79" r="196.21" transform="translate(-151.93 246.78) rotate(-45)"/>
  <ellipse class="cls-10" cx="223.04" cy="573.42" rx="223.04" ry="6.55"/>
  <path class="cls-7" d="M404.47,94.36c20.86,0,37.78,22.65,37.78,50.58s-16.91,50.58-37.78,50.58h-16.61v-5.14c-12.54-8.23-21.17-25.48-21.17-45.44s8.63-37.21,21.17-45.44v-5.14h16.61Z"/>
  <path class="cls-3" d="M387.86,195.52c20.81,0,37.78-22.72,37.78-50.58s-16.97-50.58-37.78-50.58-37.78,22.72-37.78,50.58,16.97,50.58,37.78,50.58Z"/>
  <path class="cls-3" d="M248.82,30.24v-7.8c0-2.85,0-5.7,0-8.55,0-2.34-1.24-4.49-3.27-5.66-2.02-1.17-4.51-1.17-6.54,0l-2.88-2.9c-3.39-3.41-7.99-5.33-12.8-5.33s-9.41,1.92-12.8,5.33c-6.06,6.1-13.65,10.48-21.96,12.68l1.37,2.54c1.35,2.5,2.1,5.28,2.18,8.12.49,17.36,9.69,33.31,24.49,42.42l32.21-40.85Z"/>
  <path class="cls-8" d="M194.22,236.1l-2.77,12.53c-1.27,19.42,2.71,40.04,11.47,59.46,33.47,89.26,14.92,152.44,44.94,252.48l33.69-10.75c-21.06-109.21,7.68-210.11-26.4-315.67l-60.93,1.95Z"/>
  <path class="cls-3" d="M174.86,236.1l-5.18,12.53c-5.02,19.42-5.02,40.04,0,59.46l-9.89,80.6c-5.21,48.54.93,123.34,6.14,171.88l35.76-10.75c0-109.21,3.61-218.71,53.46-315.67l-80.29,1.95Z"/>
  <path class="cls-2" d="M227.18,154.52c1.93,31.45,18.5,60.16,44.78,77.55l12.77-8.29c28.09-18.24,45.75-48.82,47.5-82.27.42-8.09-5.18-15.26-13.13-16.8-7.95-1.55-15.83,3-18.47,10.66-2.64,7.66.77,16.09,7.99,19.77l-.98,7.37c-.83,6.25-5.74,11.16-11.99,11.99-9.89,1.31-18.85,6.49-24.93,14.39l2.28-10.4c2.92-13.28-.8-27.15-9.97-37.2l6.24-9.16c7.5-11.01,5.63-25.88-4.36-34.7-9.99-8.81-24.98-8.81-34.97,0-9.99,8.81-11.86,23.68-4.36,34.7l1.6,22.38Z"/>
  <path class="cls-11" d="M266.99,172.68c-.44.62-.88,1.25-1.32,1.87-.95,2.1-1.91,4.2-2.86,6.29-7.77,17.09-5.84,34.61-7.66,53.3-10.96,11.69-28.86,19.4-45.54,19.4-13.55,0-26.49-5.61-35.76-15.49-.57-5.34-1.14-10.68-1.72-16.02-5.78-53.93-42.15-62.55-16.5-127.44,18.48-17.33,75.31-24.89,102.15-7.2,22.25,14.67,26.76,59.44,9.57,69.61-.12,5.22-.24,10.44-.36,15.66Z"/>
  <path class="cls-2" d="M192.66,79.34c14.59-2.59,30.71-2.85,44.59.06,7.16,3.27,13.64,18.98.49,21.09-13.16,2.11-27.95-23.32-45.08-21.15Z"/>
  <path class="cls-2" d="M152.63,156.73c2.09,34.23,20.14,65.49,48.74,84.42l13.9-9.02c30.58-19.85,49.8-53.15,51.7-89.55.46-8.81-5.63-16.61-14.29-18.29-8.66-1.68-17.23,3.27-20.1,11.61-2.87,8.34.84,17.52,8.69,21.52l-1.06,8.02c-.9,6.8-6.25,12.15-13.05,13.05-10.76,1.43-20.52,7.06-27.13,15.66l2.48-11.32c3.17-14.46-.87-29.56-10.85-40.49l6.79-9.97c8.16-11.99,6.13-28.17-4.75-37.77-10.87-9.59-27.19-9.59-38.07,0-10.87,9.59-12.91,25.78-4.75,37.77l1.74,24.36Z"/>
  <path class="cls-1" d="M170.21,549.28l5.82-1.19,8.22-5.74c3.13-2.19,6.93-2.82,10.49-1.75,3.56,1.07,6.57,3.75,8.31,7.4l3.25-.34c6.24-.66,12.42,1.84,16.85,6.82,4.43,4.98,6.66,11.91,6.07,18.92h-64.64v-4.76c0-6.1,1.43-12.09,4.14-17.37l1.48-2.01Z"/>
  <path class="cls-1" d="M252.14,549.28l5.82-1.19,8.22-5.74c3.13-2.19,6.93-2.82,10.49-1.75,3.56,1.07,6.57,3.75,8.31,7.4l3.25-.34c6.24-.66,12.42,1.84,16.85,6.82,4.43,4.98,6.66,11.91,6.07,18.92h-64.65v-4.76c0-6.1,1.43-12.09,4.14-17.37l1.48-2.01Z"/>
  <polygon class="cls-2" points="198.76 78.4 229.21 89.57 236.14 53.52 207.97 34.48 198.76 78.4"/>
  <path class="cls-9" d="M231.37,78.37l4.77-24.85-28.17-19.04-3.57,17.01c4.25,15.55,15.05,26.88,26.96,26.88Z"/>
  <path class="cls-2" d="M245.33,16.62c5.98,16.99,11.11,56.85-11.65,56.85-14.54,0-30.64-16.88-35.95-37.7-.45-1.77-.81-3.51-1.08-5.22l48.68-13.93Z"/>
  <path class="cls-3" d="M204.33,51.84l14.37-8.16-2.21-3.99c-1.55-2.8-1.55-6.19,0-8.99,1.78-3.21,5.18-5.17,8.85-5.11,6.96.12,13.81-1.72,19.77-5.3l3.71,9.95-1.81-17.01-51.33,13.12-.65,6.45,4.57,17.76,4.74,1.27Z"/>
  <path class="cls-2" d="M207.04,36.67c2.8,0,5.77,3.44,6.64,7.68.86,4.24-.71,7.67-3.51,7.67s-5.77-3.44-6.64-7.67c-.86-4.24.71-7.68,3.51-7.68Z"/>
  <path class="cls-6" d="M230.26,63.4c6.36,4.78,12.37,6.95,16.6-3.77-4.47,2.68-10.39,3.42-16.6,3.77Z"/>
  <path class="cls-5" d="M127.87,150.65h265.43c3.81,0,3.8-11.41,0-11.41H127.87c-3.8,0-3.81,11.41,0,11.41Z"/>
  <path class="cls-7" d="M130.32,94.36c20.86,0,37.78,22.65,37.78,50.58s-16.91,50.58-37.78,50.58h-16.61v-5.14c-12.54-8.23-21.17-25.48-21.17-45.44s8.63-37.21,21.17-45.44v-5.14h16.61Z"/>
  <ellipse class="cls-4" cx="113.71" cy="144.94" rx="37.78" ry="50.58"/>
  <path class="cls-5" d="M83.94,150.65h30.4c3.8,0,3.8-11.41,0-11.41h-30.4c-3.8,0-3.81,11.41,0,11.41Z"/>
  <path class="cls-2" d="M263.36,165.65c1.97-7.48,3.19-15.21,3.6-23.08.46-8.81-5.63-16.61-14.29-18.29-8.66-1.68-17.23,3.27-20.1,11.61-2.87,8.34.84,17.52,8.69,21.52l-1.06,8.02-.03.22h23.19Z"/>
  <path class="cls-2" d="M325.17,174.17c4.04-10.31,6.46-21.32,7.05-32.66.42-8.09-5.18-15.26-13.13-16.8-7.95-1.55-15.83,3-18.47,10.66-2.64,7.66.77,16.09,7.99,19.77l-.98,7.37c-.75,5.68-4.88,10.26-10.32,11.66h27.86Z"/>
</svg>