<?xml version="1.0" encoding="UTF-8"?>
<svg id="Réteg_1" data-name="Réteg 1" xmlns="http://www.w3.org/2000/svg" viewBox="0 0 480.28 417.98">
  <defs>
    <style>
      .cls-1 {
        fill: none;
      }

      .cls-1, .cls-2 {
        stroke-width: 0px;
      }

      .cls-2 {
        fill: #5391f5;
      }
    </style>
  </defs>
  <path class="cls-2" d="M466.39,414.07c-.37.88-.74,1.77-1.13,2.66h-70.81s-7.05-7,14.95-25c0,0-26.93-13.95-49.78-39.51-10.1-11.3-19.4-24.86-25.22-40.49,0,0-19.18,12.73-47.32,21.74-26.84,8.58-61.85,13.77-96.14,1.27-21.53-7.85-42.77-22.67-61.54-48.01,0,0-12,6-22,6,0,0,2.39,16.74-6.36,33.86h0c-1.04,2.05-2.25,4.11-3.64,6.14-13,19-20,38-20,48l16,4s-2,30-4,32H6.03s-4.4-49.77,8.5-112.99c5.14-25.19,13.03-52.53,25.03-79.7,3.75-8.5,7.91-16.99,12.52-25.4,19.77-36.09,47.77-70.59,87.32-97.91,0,0,21.15-16.53,46.04-15.5,13.59.56,28.31,6.36,41.31,22.96,1.57,2.02,3.13,4.19,4.65,6.54,4.2,6.47,8.06,12.22,11.61,17.35,2,2.88,3.89,5.57,5.69,8.07,23.25,32.23,30.7,33.58,30.7,33.58,0,0,2.23,1.01,8.57,1.49.28.02.58.04.88.06,7.94.5,21.74.16,44.55-3.55,23.23-3.78,40.62,3.24,52.81,12.22,10.37,7.65,16.97,16.72,20.19,21.78,7,11,17,33,15,67-2,34,21,42,21,42,0,0,21,9,35,9,0,0,11.34,36.78-11.01,90.34h0Z"/>
  <path class="cls-2" d="M185.44,85.23c-24.89-1.03-46.04,15.5-46.04,15.5-39.55,27.32-67.55,61.82-87.32,97.91,0,0-89.68-41.91-33.68-85.91,0,0-6-11,1-24,0,0-3.87-16.02,5.23-28.35h0c3.15-4.26,7.84-8.08,14.77-10.65,0,0,12-5,21-39,0,0,4-22,37-3s80.07,64,88.04,77.5Z"/>
  <path class="cls-2" d="M175.23,243.86s53.76,48.44,141.7,13.39l2.39,9.34,2.42,8.7,3.16,9.94,4.64,14.41,2.21,5.87,2.01,4.83.94,1.39-5.08,2.92-29.98,14.36-25.41,8.1-15.45,3.13-16,1.71-13.28.14-12.37-1.01-8.74-1.44-14.8-3.97-12.07-4.83-10.65-5.63-8.83-5.75-10.76-8.62-7.87-7.28-5.11-6-5.65-6.59-2.88-3.75-.68-.35,3.72-2.39,6.16-4.92,8.65-7.37,10.96-10.43,11.21-11.8,5.44-6.11h0Z"/>
  <path class="cls-2" d="M52.08,198.64c19.77-36.09,47.77-70.59,87.32-97.91,0,0,21.15-16.53,46.04-15.5"/>
  <path class="cls-1" d="M248.71,140.15s-61.3,106.58-119.3,146.58"/>
  <path class="cls-1" d="M334.4,311.73c-7-15-18-52-21.65-74.5s-24.78-62.01-24.78-62.01"/>
  <path class="cls-2" d="M206.4,395.73l-4.46,20h-61.54c-24.8-35.71-39.13-88.28-39.36-89.13h0c8.75-17.13,6.36-33.87,6.36-33.87,10,0,22-6,22-6,18.77,25.34,40.01,40.16,61.54,48.01-8.47,27.01-.54,56.99-.54,56.99,13-1,16,4,16,4h0Z"/>
  <path class="cls-2" d="M101.04,326.59c8.75-17.12,6.36-33.86,6.36-33.86,10,0,22-6,22-6,18.77,25.34,40.01,40.16,61.54,48.01"/>
  <path class="cls-2" d="M359.62,352.22c-24.78,48.49-43.22,65.51-43.22,65.51,0,0-53,1-62.88-1-9.89-2-4.12-8-4.12-8l21-20,16.68-55.26c28.14-9.01,47.32-21.74,47.32-21.74,5.82,15.63,15.12,29.19,25.22,40.49Z"/>
  <path class="cls-2" d="M287.08,333.47c28.14-9.01,47.32-21.74,47.32-21.74,5.82,15.63,15.12,29.19,25.22,40.49"/>
  <path class="cls-2" d="M48.33,416.73H6.03s-4.4-49.77,8.5-112.99c12.72-3.5,27.95-5.87,34.87-.01,13,11-10,38-12,52-1.66,11.62,7.7,48.71,10.93,61Z"/>
  <path class="cls-2" d="M226.75,108.19c-38.4,7.66-96.73,49.03-112.64,67.03-16.78,18.98-18.21,58.01-37.21,59.01-11,.58-26.36-5.21-37.34-10.19,3.75-8.5,7.91-16.99,12.52-25.4,19.77-36.09,47.77-70.59,87.32-97.91,0,0,21.15-16.53,46.04-15.5,13.59.56,28.31,6.36,41.31,22.96Z"/>
  <path class="cls-1" d="M466.39,414.07c.49-7.22.67-19.51-.99-38.34-3-34-12.5-19.5-53.5-54.5s-21.67-71.71-25-94-98.5-51.5-98.5-51.5l.45-.45c7.94.5,21.74.16,44.55-3.55,43-7,66,23,73,34s17,33,15,67,21,42,21,42c0,0,21,9,35,9,0,0,11.34,36.78-11.01,90.34Z"/>
  <path class="cls-2" d="M185.44,85.23c-24.89-1.03-46.04,15.5-46.04,15.5-17.5-21.5-82.5-9.5-104.5-8.5s-10.27-31.85-10.27-31.85h0c3.15-4.26,7.84-8.08,14.77-10.65,0,0,12-5,21-39,0,0,4-22,37-3s80.07,64,88.04,77.5Z"/>
  <path class="cls-1" d="M466.39,414.07c-.37.88-.74,1.77-1.13,2.66h-70.81s-7.05-7,14.95-25c0,0-26.93-13.95-49.78-39.51-10.1-11.3-19.4-24.86-25.22-40.49,0,0-19.18,12.73-47.32,21.74-26.84,8.58-61.85,13.77-96.14,1.27-21.53-7.85-42.77-22.67-61.54-48.01,0,0-12,6-22,6,0,0,2.39,16.74-6.36,33.86h0c-1.04,2.05-2.25,4.11-3.64,6.14-13,19-20,38-20,48l16,4s-2,30-4,32H6.03s-4.4-49.77,8.5-112.99c5.14-25.19,13.03-52.53,25.03-79.7,3.75-8.5,7.91-16.99,12.52-25.4,19.77-36.09,47.77-70.59,87.32-97.91,0,0,21.15-16.53,46.04-15.5,13.59.56,28.31,6.36,41.31,22.96,1.57,2.02,3.13,4.19,4.65,6.54,4.2,6.47,8.06,12.22,11.61,17.35,2,2.88,3.89,5.57,5.69,8.07,23.25,32.23,30.7,33.58,30.7,33.58,0,0,2.23,1.01,8.57,1.49.28.02.58.04.88.06,7.94.5,21.74.16,44.55-3.55,23.23-3.78,40.62,3.24,52.81,12.22,10.37,7.65,16.97,16.72,20.19,21.78,7,11,17,33,15,67-2,34,21,42,21,42,0,0,21,9,35,9,0,0,11.34,36.78-11.01,90.34h0Z"/>
  <path class="cls-1" d="M185.44,85.23c-24.89-1.03-46.04,15.5-46.04,15.5-39.55,27.32-67.55,61.82-87.32,97.91,0,0-89.68-41.91-33.68-85.91,0,0-6-11,1-24,0,0-3.87-16.02,5.23-28.35h0c3.15-4.26,7.84-8.08,14.77-10.65,0,0,12-5,21-39,0,0,4-22,37-3s80.07,64,88.04,77.5Z"/>
</svg>