<?xml version="1.0" encoding="UTF-8"?>
<svg xmlns="http://www.w3.org/2000/svg" viewBox="0 0 1120.59 366.33">
  <defs>
    <style>
      .cls-1 {
        fill: #76b4ff;
      }

      .cls-1, .cls-2, .cls-3 {
        stroke-width: 0px;
      }

      .cls-4 {
        font-family: ArialMT, Arial;
        font-size: 309.7px;
      }

      .cls-5, .cls-6, .cls-7, .cls-8, .cls-9 {
        stroke-miterlimit: 10;
      }

      .cls-5, .cls-8 {
        fill: #16479d;
      }

      .cls-5, .cls-9 {
        stroke: #000;
      }

      .cls-6 {
        fill: none;
      }

      .cls-6, .cls-7, .cls-8 {
        stroke: #262b7b;
      }

      .cls-6, .cls-8 {
        stroke-width: 4px;
      }

      .cls-7 {
        stroke-width: 3px;
      }

      .cls-7, .cls-3 {
        fill: #2253b6;
      }

      .cls-2, .cls-9 {
        fill: #5391f5;
      }
    </style>
  </defs>
  <g id="Réteg_1" data-name="Réteg 1">
    <g>
      <path class="cls-9" d="M254.39,262.16c-.2.46-.4.92-.61,1.39h-38.32s-3.82-3.65,8.09-13.04c0,0-14.57-7.28-26.94-20.61-5.47-5.89-10.5-12.97-13.65-21.12,0,0-10.38,6.64-25.61,11.34-14.52,4.47-33.47,7.18-52.03.66-11.65-4.09-23.14-11.82-33.3-25.04,0,0-6.49,3.13-11.91,3.13,0,0,1.29,8.73-3.44,17.66h0c-.56,1.07-1.22,2.14-1.97,3.2-7.03,9.91-10.82,19.82-10.82,25.03l8.66,2.09s-1.08,15.65-2.16,16.69H5.26s-2.38-25.96,4.6-58.93c2.78-13.14,7.05-27.4,13.54-41.57,2.03-4.43,4.28-8.86,6.78-13.25,10.7-18.82,25.85-36.82,47.25-51.07,0,0,11.45-8.62,24.91-8.08,7.35.29,15.32,3.32,22.35,11.97.85,1.05,1.69,2.19,2.52,3.41,2.27,3.37,4.36,6.37,6.28,9.05,1.08,1.5,2.11,2.91,3.08,4.21,12.58,16.81,16.61,17.51,16.61,17.51,0,0,1.21.53,4.64.78.15.01.31.02.48.03,4.3.26,11.76.08,24.11-1.85,12.57-1.97,21.98,1.69,28.58,6.37,5.61,3.99,9.18,8.72,10.93,11.36,3.79,5.74,9.2,17.21,8.12,34.94-1.08,17.73,11.36,21.91,11.36,21.91,0,0,11.36,4.69,18.94,4.69,0,0,6.14,19.18-5.96,47.12Z"/>
      <path class="cls-7" d="M102.35,90.65c-13.47-.54-24.91,8.08-24.91,8.08-21.4,14.25-36.55,32.24-47.25,51.07,0,0-48.53-21.86-18.23-44.81,0,0-3.25-5.74.54-12.52,0,0-2.09-8.36,2.83-14.79h0c1.7-2.22,4.24-4.21,7.99-5.55,0,0,6.49-2.61,11.36-20.34,0,0,2.16-11.47,20.02-1.56,17.86,9.91,43.33,33.38,47.64,40.42Z"/>
      <path class="cls-3" d="M96.83,173.39s29.09,25.26,76.68,6.98l1.29,4.87,1.31,4.54,1.71,5.18,2.51,7.52,1.2,3.06,1.09,2.52.51.72-2.75,1.52-16.23,7.49-13.75,4.23-8.36,1.63-8.66.89-7.18.07-6.69-.53-4.73-.75-8.01-2.07-6.53-2.52-5.77-2.94-4.78-3-5.82-4.49-4.26-3.8-2.76-3.13-3.06-3.44-1.56-1.96-.37-.18,2.01-1.25,3.33-2.56,4.68-3.84,5.93-5.44,6.06-6.15,2.94-3.18Z"/>
      <path class="cls-9" d="M30.18,149.8c10.7-18.82,25.85-36.82,47.25-51.07,0,0,11.45-8.62,24.91-8.08"/>
      <path class="cls-6" d="M136.59,119.29s-33.17,55.59-64.56,76.45"/>
      <path class="cls-6" d="M182.96,208.78c-3.79-7.82-9.74-27.12-11.72-38.86-1.97-11.73-13.41-32.34-13.41-32.34"/>
      <path class="cls-8" d="M113.69,252.59l-2.41,10.43h-33.3c-13.42-18.62-21.18-46.04-21.3-46.49h0c4.74-8.93,3.44-17.67,3.44-17.67,5.41,0,11.91-3.13,11.91-3.13,10.16,13.22,21.65,20.95,33.3,25.04-4.58,14.09-.29,29.72-.29,29.72,7.03-.52,8.66,2.09,8.66,2.09Z"/>
      <path class="cls-5" d="M56.68,216.53c4.74-8.93,3.44-17.66,3.44-17.66,5.41,0,11.91-3.13,11.91-3.13,10.16,13.22,21.65,20.95,33.3,25.04"/>
      <path class="cls-8" d="M196.61,229.9c-13.41,25.29-23.39,34.17-23.39,34.17,0,0-28.68.52-34.03-.52-5.35-1.04-2.23-4.17-2.23-4.17l11.36-10.43,9.03-28.82c15.23-4.7,25.61-11.34,25.61-11.34,3.15,8.15,8.18,15.22,13.65,21.12Z"/>
      <path class="cls-5" d="M157.35,220.12c15.23-4.7,25.61-11.34,25.61-11.34,3.15,8.15,8.18,15.22,13.65,21.12"/>
      <path class="cls-1" d="M28.15,263.55H5.26s-2.38-25.96,4.6-58.93c6.88-1.83,15.13-3.06,18.87,0,7.03,5.74-5.41,19.82-6.49,27.12-.9,6.06,4.17,25.4,5.91,31.81Z"/>
      <path class="cls-1" d="M124.71,102.62c-20.78,4-52.35,25.57-60.95,34.96-9.08,9.9-9.85,30.26-20.14,30.78-5.95.3-14.26-2.72-20.21-5.31,2.03-4.43,4.28-8.86,6.78-13.25,10.7-18.82,25.85-36.82,47.25-51.07,0,0,11.45-8.62,24.91-8.08,7.35.29,15.32,3.32,22.35,11.97Z"/>
      <path class="cls-1" d="M254.39,262.16c.27-3.77.36-10.18-.54-20-1.62-17.73-6.76-10.17-28.95-28.42-22.19-18.25-11.73-37.4-13.53-49.03-1.8-11.63-53.3-26.86-53.3-26.86l.24-.23c4.3.26,11.76.08,24.11-1.85,23.27-3.65,35.72,12,39.5,17.73,3.79,5.74,9.2,17.21,8.12,34.94-1.08,17.73,11.36,21.91,11.36,21.91,0,0,11.36,4.69,18.94,4.69,0,0,6.14,19.18-5.96,47.12Z"/>
      <path class="cls-2" d="M102.35,90.65c-13.47-.54-24.91,8.08-24.91,8.08-9.47-11.21-44.64-4.95-56.55-4.43-11.91.52-5.56-16.61-5.56-16.61h0c1.7-2.22,4.24-4.21,7.99-5.55,0,0,6.49-2.61,11.36-20.34,0,0,2.16-11.47,20.02-1.56,17.86,9.91,43.33,33.38,47.64,40.42Z"/>
      <path class="cls-6" d="M254.39,262.16c-.2.46-.4.92-.61,1.39h-38.32s-3.82-3.65,8.09-13.04c0,0-14.57-7.28-26.94-20.61-5.47-5.89-10.5-12.97-13.65-21.12,0,0-10.38,6.64-25.61,11.34-14.52,4.47-33.47,7.18-52.03.66-11.65-4.09-23.14-11.82-33.3-25.04,0,0-6.49,3.13-11.91,3.13,0,0,1.29,8.73-3.44,17.66h0c-.56,1.07-1.22,2.14-1.97,3.2-7.03,9.91-10.82,19.82-10.82,25.03l8.66,2.09s-1.08,15.65-2.16,16.69H5.26s-2.38-25.96,4.6-58.93c2.78-13.14,7.05-27.4,13.54-41.57,2.03-4.43,4.28-8.86,6.78-13.25,10.7-18.82,25.85-36.82,47.25-51.07,0,0,11.45-8.62,24.91-8.08,7.35.29,15.32,3.32,22.35,11.97.85,1.05,1.69,2.19,2.52,3.41,2.27,3.37,4.36,6.37,6.28,9.05,1.08,1.5,2.11,2.91,3.08,4.21,12.58,16.81,16.61,17.51,16.61,17.51,0,0,1.21.53,4.64.78.15.01.31.02.48.03,4.3.26,11.76.08,24.11-1.85,12.57-1.97,21.98,1.69,28.58,6.37,5.61,3.99,9.18,8.72,10.93,11.36,3.79,5.74,9.2,17.21,8.12,34.94-1.08,17.73,11.36,21.91,11.36,21.91,0,0,11.36,4.69,18.94,4.69,0,0,6.14,19.18-5.96,47.12Z"/>
      <path class="cls-6" d="M102.35,90.65c-13.47-.54-24.91,8.08-24.91,8.08-21.4,14.25-36.55,32.24-47.25,51.07,0,0-48.53-21.86-18.23-44.81,0,0-3.25-5.74.54-12.52,0,0-2.09-8.36,2.83-14.79h0c1.7-2.22,4.24-4.21,7.99-5.55,0,0,6.49-2.61,11.36-20.34,0,0,2.16-11.47,20.02-1.56,17.86,9.91,43.33,33.38,47.64,40.42Z"/>
    </g>
  </g>
  <g id="Réteg_2" data-name="Réteg 2">
    <text class="cls-4" transform="translate(275.97 265.77) scale(.79 1)"><tspan x="0" y="0">FlexNet</tspan></text>
  </g>
</svg>