<?xml version="1.0" encoding="UTF-8"?>
<svg id="Layer_1" data-name="Layer 1" xmlns="http://www.w3.org/2000/svg" viewBox="0 0 388.63 334.5">
  <defs>
    <style>
      .cls-1 {
        fill: #bd591e;
      }

      .cls-1, .cls-2, .cls-3, .cls-4, .cls-5, .cls-6, .cls-7, .cls-8, .cls-9, .cls-10, .cls-11, .cls-12, .cls-13, .cls-14 {
        stroke-width: 0px;
      }

      .cls-1, .cls-3, .cls-4, .cls-6, .cls-8, .cls-10, .cls-11, .cls-13, .cls-14 {
        fill-rule: evenodd;
      }

      .cls-2, .cls-10 {
        fill: #4d5a69;
      }

      .cls-3, .cls-5 {
        fill: #222a33;
      }

      .cls-4 {
        fill: #cf6632;
      }

      .cls-6, .cls-7 {
        fill: #9fb3c7;
      }

      .cls-8 {
        fill: #748ba3;
      }

      .cls-9 {
        fill: #394552;
      }

      .cls-11, .cls-12 {
        fill: #f29d72;
      }

      .cls-13 {
        fill: #5391f5;
      }

      .cls-14 {
        fill: #dceefa;
      }
    </style>
  </defs>
  <path class="cls-14" d="M194.31,0c104.71,0,189.6,84.89,189.6,189.6,0,54.18-22.73,103.05-59.17,137.6H63.89C27.44,292.65,4.71,243.78,4.71,189.6,4.71,84.89,89.6,0,194.31,0Z"/>
  <polygon class="cls-11" points="82.79 142.61 70.94 115.32 98.34 109.32 108.96 135.79 82.79 142.61"/>
  <path class="cls-4" d="M75.77,114.26l22.57-4.94,10.62,26.47-10.53,2.75c-12.73-2.91-22.19-12.62-22.66-24.28Z"/>
  <path class="cls-11" d="M61.7,89.24l41.3-9.74,9.04,26.72c3.76,11.1-2.46,22.38-13.82,25.06h0c-11.36,2.68-23.72-4.21-27.48-15.32,0,0-9.04-26.72-9.04-26.72Z"/>
  <path class="cls-8" d="M306.75,162.79l-63.28,63.28c-3.72,3.72-8.58,5.61-13.46,5.79-5.02.18-10.07-1.46-13.91-4.8l2.37-2.74c3.14,2.73,7.28,4.07,11.41,3.92,3.99-.14,7.97-1.69,11.02-4.74l63.28-63.28,2.57,2.57h0Z"/>
  <rect class="cls-9" x="141.64" y="239.41" width="13.15" height="86.91"/>
  <rect class="cls-9" x="195.45" y="239.41" width="13.15" height="86.91"/>
  <rect class="cls-9" x="305.78" y="127.38" width="13.15" height="198.94"/>
  <rect class="cls-9" x="32.58" y="131.98" width="13.15" height="194.34"/>
  <path class="cls-6" d="M70.32,322.02h86.82v-13.64c0-1.76-1.48-3.24-3.24-3.24h-80.33c-1.76,0-3.24,1.48-3.24,3.24v13.64h0ZM73.56,295.14h80.33c7.28,0,13.24,5.96,13.24,13.24v23.64H60.33v-23.64c0-7.28,5.96-13.24,13.24-13.24h-.01Z"/>
  <path class="cls-13" d="M89.51,136.96c7.86-1.44,15.92-1.66,23.87-.65,13.03,1.67,22.62,13.01,22.1,26.13l31.03,31.03c6.81,6.81,9.48,16.75,6.98,26.05-2.49,9.31-9.76,16.58-19.07,19.07l-73.62-73.72c-4.45-4.46-5.96-10.58-4.08-16.6,1.88-6.01,6.6-10.2,12.79-11.33v.02Z"/>
  <path class="cls-3" d="M152.57,228.47l13.5-69.87c2.24-11.59,13.55-19.24,25.14-17h0c11.59,2.24,19.24,13.55,17,25.14l-13.5,69.87c-2.24,11.59-13.55,19.24-25.14,17h0c-11.59-2.24-19.24-13.55-17-25.14h0Z"/>
  <path class="cls-3" d="M258.02,123.7l-51.05,49.58c-8.47,8.22-22.12,8.02-30.35-.44h0c-8.22-8.47-8.02-22.12.44-30.35l51.05-49.58c8.47-8.22,22.12-8.02,30.35.44h0c8.22,8.47,8.02,22.12-.44,30.35Z"/>
  <rect class="cls-7" x="139.02" y="187.9" width="217.91" height="10.76" transform="translate(-64.04 231.96) rotate(-45)"/>
  <rect class="cls-7" x="96.12" y="84.34" width="10.76" height="217.91" transform="translate(-106.95 128.39) rotate(-45)"/>
  <circle class="cls-12" cx="100.24" cy="165.45" r="24.24"/>
  <path class="cls-11" d="M77.67,164.66l36.9-6.63v54.9c0,10.47-8.3,20.53-18.45,22.36l-18.45,3.31v-73.95h0Z"/>
  <path class="cls-11" d="M95.38,295.14l-18.45-49.39c-2.73-7.3-1.13-15.51,4.14-21.25s13.31-8.04,20.82-5.94c7.5,2.09,13.2,8.22,14.74,15.86l-2.8,59.95s-18.45.77-18.45.77Z"/>
  <rect class="cls-7" x="264" y="44.49" width="10.76" height="104.59" transform="translate(10.46 218.83) rotate(-45)"/>
  <path class="cls-1" d="M233.67,106.61c-10.63-10.63-10.63-27.86,0-38.48l38.48,38.48c-10.63,10.63-27.86,10.63-38.48,0Z"/>
  <path class="cls-11" d="M111.07,316.91c10.04,0,18.24-8.19,18.24-18.23s-8.19-18.24-18.24-18.24-18.24,8.19-18.24,18.24,8.19,18.23,18.24,18.23Z"/>
  <rect class="cls-9" y="319.9" width="388.63" height="14.6"/>
  <circle class="cls-2" cx="325.02" cy="116.26" r="63.6"/>
  <circle class="cls-5" cx="325.03" cy="116.23" r="49.2" transform="translate(-14.42 53.58) rotate(-9.22)"/>
  <circle class="cls-7" cx="325.02" cy="116.25" r="24.24"/>
  <path class="cls-10" d="M325.02,126.58c5.69,0,10.33-4.64,10.33-10.33s-4.64-10.33-10.33-10.33-10.33,4.64-10.33,10.33,4.64,10.33,10.33,10.33Z"/>
  <path class="cls-3" d="M103.87,82.05l-.15-7.22c-.12-5.92-3.98-11.11-9.62-12.93s-11.8.13-15.37,4.86l-19.02,9.61c-2.67,1.35-3.95,4.47-2.98,7.3l-.77,2.5c-1.05,3.41-.25,7.12,2.11,9.8l18.79,33,8.5-19.64c1.48-3.42,3.91-6.36,6.99-8.45l-6.42-15.66,17.92-3.15.02-.02Z"/>
  <path class="cls-11" d="M76.8,95.88c3.39-1.83,8.06.25,10.43,4.64s1.54,9.43-1.85,11.26-8.06-.25-10.43-4.64-1.54-9.43,1.85-11.26Z"/>
  <path class="cls-11" d="M108.96,104.25c1.98,0,3.59-1.61,3.59-3.59s-1.61-3.59-3.59-3.59-3.59,1.61-3.59,3.59,1.61,3.59,3.59,3.59Z"/>
</svg>